<svg width="56" height="64" viewBox="0 0 56 64" fill="none" xmlns="http://www.w3.org/2000/svg">
<path d="M11.0286 3.71887C14.8106 2.49087 25.5366 6.84387 26.9106 8.40987C28.2756 9.96787 19.3646 10.6119 14.5266 11.3289C9.53457 12.0799 4.55558 12.9769 3.19458 11.4059C1.83458 9.85687 7.25157 4.95487 11.0286 3.71887Z" fill="#F79423"/>
<path d="M37.0599 0.988809C41.3819 -0.273191 52.9719 4.91681 54.3719 6.68481C55.7579 8.47481 45.7919 8.92081 40.3519 9.57781C34.7209 10.2518 29.0809 11.0978 27.6939 9.31581C26.2979 7.54781 32.7529 2.23781 37.0629 0.988809" fill="#F79423"/>
<path d="M11.6906 8.15774C14.2876 6.44974 25.4646 8.19674 27.3486 9.26974C29.2506 10.3337 22.0436 12.4887 18.2986 13.9607C14.4476 15.4837 10.6746 17.1537 8.7776 16.0637C6.8686 15.0037 9.1046 9.88274 11.6926 8.15774" fill="#F79423"/>
<path d="M22.1708 0.0408366C25.9518 0.379837 29.9308 6.99384 29.5618 8.56084C29.2058 10.1188 22.2138 7.71084 18.0968 6.65984C13.8568 5.58184 9.48276 4.62884 9.86076 3.07084C10.2258 1.49584 18.3808 -0.294163 22.1708 0.0408366Z" fill="#F79423"/>
<path d="M35.1209 7.43576C38.9159 7.76176 42.8909 14.3808 42.5209 15.9428C42.1519 17.5098 35.1639 15.0968 31.0469 14.0498C26.8189 12.9768 22.4319 12.0108 22.8099 10.4488C23.1679 8.88676 31.3399 7.10576 35.1209 7.43876" fill="#F79423"/>
<path d="M0 51.5869C0 61.0179 13.478 63.7649 27.896 63.7649C42.313 63.7649 55.796 61.0179 55.796 51.5869C55.796 42.1739 42.314 14.0549 27.896 14.0549C13.478 14.0549 0 42.1749 0 51.5869Z" fill="#F79423"/>
<path d="M36.5472 15.2136C36.5475 15.6826 36.4553 16.1471 36.2759 16.5805C36.0966 17.0138 35.8335 17.4076 35.5019 17.7392C35.1702 18.0709 34.7765 18.3339 34.3431 18.5133C33.9097 18.6927 33.4453 18.7848 32.9762 18.7846H22.8112C21.8641 18.7846 20.9558 18.4083 20.2862 17.7387C19.6165 17.069 19.2402 16.1607 19.2402 15.2136C19.2402 14.2665 19.6165 13.3582 20.2862 12.6885C20.9558 12.0188 21.8641 11.6426 22.8112 11.6426H32.9752C33.4443 11.6424 33.9087 11.7347 34.3421 11.9141C34.7755 12.0935 35.1693 12.3565 35.501 12.6881C35.8327 13.0198 36.0958 13.4135 36.2753 13.8468C36.4548 14.2801 36.5472 14.7445 36.5472 15.2136Z" fill="#845939"/>
<path d="M34.4746 40.9178C33.3676 39.7368 31.8396 38.9468 30.3886 38.2908C28.8776 37.6028 26.6886 37.0418 25.7266 35.5608C24.9196 34.3208 26.0316 33.0198 27.1646 32.6418C28.9886 32.0288 31.2386 32.7668 32.8396 33.6678C33.6376 34.1138 34.4796 33.6768 34.7836 32.8778C35.1186 31.9938 35.4536 31.1088 35.7836 30.2258C35.9856 29.6888 35.6596 29.0018 35.1796 28.7318C33.7246 27.9248 32.2086 27.4828 30.6076 27.2728V24.5688C30.6076 23.8478 30.0066 23.2468 29.2856 23.2468H26.7916C26.0746 23.2468 25.4696 23.8478 25.4696 24.5688V27.5888C23.0016 28.3008 20.7526 29.8898 19.8766 32.4138C18.9026 35.2078 19.4946 38.1008 21.5676 40.2168C22.6796 41.3548 24.1816 42.1018 25.6076 42.7488C27.2166 43.4748 29.1956 43.9978 30.2346 45.5478C31.3466 47.2048 29.9086 48.8398 28.3546 49.3088C26.2686 49.9348 23.7406 48.9958 21.9886 47.9048C21.2206 47.4248 20.3276 47.9178 20.0486 48.6948L19.0826 51.3858C18.8766 51.9608 19.2196 52.5708 19.6916 52.8788C21.3446 53.9608 23.2416 54.4968 25.1856 54.7208V57.5668C25.1856 57.9538 25.3276 58.2498 25.5376 58.4598C25.5506 58.4738 25.5636 58.4858 25.5716 58.4988C25.5836 58.5113 25.5966 58.5227 25.6106 58.5328C25.8206 58.7478 26.1166 58.8888 26.5036 58.8888H29.0406C29.3899 58.8857 29.7239 58.7453 29.9705 58.4979C30.2171 58.2506 30.3565 57.9161 30.3586 57.5668V54.4248C33.1016 53.6348 35.2216 51.8628 36.2906 49.1108C37.3866 46.3038 36.4546 43.0368 34.4676 40.9168" fill="#25333A"/>
<path d="M34.4746 39.0918C33.3676 37.9158 31.8396 37.1258 30.3886 36.4698C28.8776 35.7818 26.6886 35.2208 25.7266 33.7358C24.9196 32.5038 26.0316 31.1988 27.1646 30.8168C28.9886 30.2078 31.2386 30.9418 32.8396 31.8428C33.6376 32.2938 34.4796 31.8508 34.7836 31.0528C35.1186 30.1688 35.4536 29.2888 35.7836 28.4048C35.9856 27.8638 35.6596 27.1768 35.1796 26.9108C33.7246 26.0998 32.2086 25.6618 30.6076 25.4478V22.7438C30.6076 22.0268 30.0066 21.4258 29.2856 21.4258H26.7916C26.0746 21.4258 25.4696 22.0268 25.4696 22.7438V25.7638C23.0016 26.4768 20.7526 28.0688 19.8766 30.5928C18.9026 33.3868 19.4946 36.2798 21.5676 38.3918C22.6796 39.5298 24.1816 40.2808 25.6076 40.9238C27.2166 41.6498 29.1956 42.1728 30.2346 43.7228C31.3466 45.3788 29.9086 47.0148 28.3546 47.4868C26.2686 48.1138 23.7406 47.1748 21.9886 46.0798C21.2206 45.6028 20.3276 46.0968 20.0486 46.8698L19.0826 49.5648C18.8766 50.1348 19.2196 50.7498 19.6916 51.0578C21.3446 52.1358 23.2416 52.6758 25.1856 52.8998V55.7458C25.1856 56.1278 25.3276 56.4248 25.5376 56.6388C25.5506 56.6528 25.5636 56.6648 25.5716 56.6778C25.5855 56.688 25.5986 56.6993 25.6106 56.7118C25.8206 56.9218 26.1166 57.0638 26.5036 57.0638H29.0406C29.389 57.0607 29.7223 56.9209 29.9687 56.6746C30.2152 56.4284 30.3552 56.0952 30.3586 55.7468V52.6008C33.1016 51.8118 35.2216 50.0428 36.2906 47.2878C37.3866 44.4818 36.4546 41.2108 34.4676 39.0908" fill="white"/>
</svg>
