<svg width="57" height="54" viewBox="0 0 57 54" fill="none" xmlns="http://www.w3.org/2000/svg">
<path d="M10.7255 9.67407C12.5155 9.67407 13.9666 8.22296 13.9666 6.43292C13.9666 4.64288 12.5155 3.19177 10.7255 3.19177C8.93547 3.19177 7.48438 4.64288 7.48438 6.43292C7.48438 8.22296 8.93547 9.67407 10.7255 9.67407Z" fill="black"/>
<path d="M48.5302 19.7477C50.3202 19.7477 51.7713 18.2966 51.7713 16.5066C51.7713 14.7166 50.3202 13.2655 48.5302 13.2655C46.7402 13.2655 45.2891 14.7166 45.2891 16.5066C45.2891 18.2966 46.7402 19.7477 48.5302 19.7477Z" fill="black"/>
<path d="M20.4403 42.0938C22.2304 42.0938 23.6815 40.6427 23.6815 38.8527C23.6815 37.0627 22.2304 35.6116 20.4403 35.6116C18.6503 35.6116 17.1992 37.0627 17.1992 38.8527C17.1992 40.6427 18.6503 42.0938 20.4403 42.0938Z" fill="black"/>
<path d="M4.71439 17.3484L8.04302 14.4162L13.2656 14.2023L16.4732 17.2565L17.2122 21.5565L4.16016 21.5479L4.71439 17.3484Z" fill="#D93752"/>
<path d="M42.5874 27.4242L45.9171 24.4921L51.1396 24.2782L54.3462 27.3323L55.0862 31.6321L42.0332 31.6245L42.5874 27.4242Z" fill="#FFDD98"/>
<path d="M14.4907 49.7681L17.8193 46.836L23.0429 46.6221L26.2494 49.6763L26.9884 53.9762L13.9375 53.9676L14.4907 49.7681Z" fill="#2CC1A7"/>
<path d="M10.7235 9.67407C12.5136 9.67407 13.9647 8.22296 13.9647 6.43292C13.9647 4.64288 12.5136 3.19177 10.7235 3.19177C8.93352 3.19177 7.48242 4.64288 7.48242 6.43292C7.48242 8.22296 8.93352 9.67407 10.7235 9.67407Z" stroke="black" stroke-width="2" stroke-miterlimit="10"/>
<path d="M4.24023 20.4783C4.24023 20.4783 5.32061 15.8208 7.48135 14.7404C9.6421 13.6601 11.8028 13.6601 13.9636 14.7404C16.1243 15.8208 17.2047 20.4783 17.2047 20.4783" stroke="#D93752" stroke-width="2" stroke-miterlimit="10" stroke-linecap="round" stroke-linejoin="round"/>
<path d="M48.5282 19.7477C50.3182 19.7477 51.7693 18.2966 51.7693 16.5066C51.7693 14.7166 50.3182 13.2655 48.5282 13.2655C46.7382 13.2655 45.2871 14.7166 45.2871 16.5066C45.2871 18.2966 46.7382 19.7477 48.5282 19.7477Z" stroke="black" stroke-width="2" stroke-miterlimit="10"/>
<path d="M42.0449 30.552C42.0449 30.552 43.1253 25.8945 45.286 24.8141C47.4468 23.7337 49.6075 23.7337 51.7683 24.8141C53.929 25.8945 55.0094 30.5509 55.0094 30.5509" stroke="#FFDD98" stroke-width="2" stroke-miterlimit="10" stroke-linecap="round" stroke-linejoin="round"/>
<path d="M20.4384 42.0938C22.2284 42.0938 23.6795 40.6427 23.6795 38.8527C23.6795 37.0627 22.2284 35.6116 20.4384 35.6116C18.6484 35.6116 17.1973 37.0627 17.1973 38.8527C17.1973 40.6427 18.6484 42.0938 20.4384 42.0938Z" stroke="black" stroke-width="2" stroke-miterlimit="10"/>
<path d="M13.957 52.8981C13.957 52.8981 15.0374 48.2405 17.1982 47.1601C19.3589 46.0798 21.5196 46.0798 23.6804 47.1601C25.8411 48.2405 26.9215 52.897 26.9215 52.897" stroke="#2CC1A7" stroke-width="2" stroke-miterlimit="10" stroke-linecap="round" stroke-linejoin="round"/>
<path d="M44.8113 9.82104C40.2532 4.4441 33.449 1.03125 25.8486 1.03125C22.856 1.03125 19.9887 1.56063 17.332 2.52971" stroke="#DD4D64" stroke-width="2" stroke-miterlimit="10" stroke-linecap="round" stroke-linejoin="round"/>
<path d="M30.6387 50.2681C39.5118 48.5351 46.6952 42.082 49.4663 33.6281" stroke="#DD4D64" stroke-width="2" stroke-miterlimit="10" stroke-linecap="round" stroke-linejoin="round"/>
<path d="M1.09399 23.7063C1.03131 24.4292 0.999953 25.1544 1 25.88C1 34.4949 5.38416 42.0856 12.0436 46.5443" stroke="#DD4D64" stroke-width="2" stroke-miterlimit="10" stroke-linecap="round" stroke-linejoin="round"/>
</svg>
