<svg width="70" height="70" viewBox="0 0 70 70" fill="none" xmlns="http://www.w3.org/2000/svg">
<path fill-rule="evenodd" clip-rule="evenodd" d="M32.6667 21C32.6667 15.4305 34.8792 10.089 38.8174 6.15076C42.7557 2.21249 48.0971 0 53.6667 0L70 0V16.3333C70 21.9029 67.7875 27.2443 63.8492 31.1826C59.911 35.1208 54.5695 37.3333 49 37.3333H37.3333V70H32.6667V51.3333H21C15.4305 51.3333 10.089 49.1208 6.15076 45.1826C2.21249 41.2443 0 35.9029 0 30.3333L0 14H16.3333C22.932 14 28.8167 17.0427 32.6667 21.798V21ZM38.0147 28.6813L52.0147 14.6813L55.3187 17.9853L41.3187 31.9853L38.0147 28.6813ZM28.6813 45.9853L14.6813 31.9853L17.9853 28.6813L31.9853 42.6813L28.6813 45.9853Z" fill="#19C09E"/>
</svg>
