<svg width="29" height="37" viewBox="0 0 29 37" fill="none" xmlns="http://www.w3.org/2000/svg">
<circle cx="15" cy="32" r="5" fill="#29B029"/>
<rect width="29" height="13" rx="6.5" fill="#29B029"/>
<path d="M15 19L18.4641 13H11.5359L15 19Z" fill="#29B029"/>
<path d="M9.64746 7.1875C9.47754 7.38965 9.27393 7.55225 9.03662 7.67529C8.80225 7.79834 8.54443 7.85986 8.26318 7.85986C7.89404 7.85986 7.57178 7.76904 7.29639 7.5874C7.02393 7.40576 6.81299 7.15088 6.66357 6.82275C6.51416 6.4917 6.43945 6.12695 6.43945 5.72852C6.43945 5.30078 6.52002 4.91553 6.68115 4.57275C6.84521 4.22998 7.07666 3.96777 7.37549 3.78613C7.67432 3.60449 8.02295 3.51367 8.42139 3.51367C9.0542 3.51367 9.55225 3.75098 9.91553 4.22559C10.2817 4.69727 10.4648 5.3418 10.4648 6.15918V6.39648C10.4648 7.6416 10.2188 8.55127 9.72656 9.12549C9.23438 9.69678 8.4917 9.98975 7.49854 10.0044H7.34033V9.31885H7.51172C8.18262 9.30713 8.69824 9.13281 9.05859 8.7959C9.41895 8.45605 9.61523 7.91992 9.64746 7.1875ZM8.39502 7.1875C8.66748 7.1875 8.91797 7.104 9.14648 6.93701C9.37793 6.77002 9.54639 6.56348 9.65186 6.31738V5.99219C9.65186 5.45898 9.53613 5.02539 9.30469 4.69141C9.07324 4.35742 8.78027 4.19043 8.42578 4.19043C8.06836 4.19043 7.78125 4.32812 7.56445 4.60352C7.34766 4.87598 7.23926 5.23633 7.23926 5.68457C7.23926 6.12109 7.34326 6.48145 7.55127 6.76562C7.76221 7.04688 8.04346 7.1875 8.39502 7.1875ZM15.5977 7.271C15.5977 8.22314 15.4351 8.93066 15.1099 9.39355C14.7847 9.85645 14.2764 10.0879 13.585 10.0879C12.9023 10.0879 12.397 9.8623 12.0688 9.41113C11.7407 8.95703 11.5708 8.28027 11.5591 7.38086V6.29541C11.5591 5.35498 11.7217 4.65625 12.0469 4.19922C12.3721 3.74219 12.8818 3.51367 13.5762 3.51367C14.2646 3.51367 14.7715 3.73486 15.0967 4.17725C15.4219 4.6167 15.5889 5.29639 15.5977 6.21631V7.271ZM14.7847 6.15918C14.7847 5.4707 14.688 4.96973 14.4946 4.65625C14.3013 4.33984 13.9951 4.18164 13.5762 4.18164C13.1602 4.18164 12.8569 4.33838 12.6665 4.65186C12.4761 4.96533 12.3779 5.44727 12.3721 6.09766V7.39844C12.3721 8.08984 12.4717 8.60107 12.6709 8.93213C12.873 9.26025 13.1777 9.42432 13.585 9.42432C13.9863 9.42432 14.2837 9.26904 14.4771 8.9585C14.6733 8.64795 14.7759 8.15869 14.7847 7.49072V6.15918ZM16.5688 4.83203C16.5688 4.44824 16.6904 4.13184 16.9336 3.88281C17.1797 3.63379 17.4946 3.50928 17.8784 3.50928C18.2681 3.50928 18.583 3.63525 18.8232 3.88721C19.0664 4.13623 19.188 4.45996 19.188 4.8584V5.17041C19.188 5.55713 19.0649 5.87354 18.8188 6.11963C18.5757 6.36279 18.2651 6.48438 17.8872 6.48438C17.5063 6.48438 17.1914 6.36279 16.9424 6.11963C16.6934 5.87354 16.5688 5.54688 16.5688 5.13965V4.83203ZM17.1753 5.17041C17.1753 5.39893 17.2397 5.58789 17.3687 5.7373C17.4976 5.88379 17.6704 5.95703 17.8872 5.95703C18.0952 5.95703 18.2622 5.88525 18.3882 5.7417C18.5171 5.59814 18.5815 5.40186 18.5815 5.15283V4.83203C18.5815 4.60352 18.5186 4.41455 18.3926 4.26514C18.2666 4.11572 18.0952 4.04102 17.8784 4.04102C17.6616 4.04102 17.4902 4.11572 17.3643 4.26514C17.2383 4.41455 17.1753 4.60938 17.1753 4.84961V5.17041ZM19.6846 8.43115C19.6846 8.04736 19.8062 7.73242 20.0493 7.48633C20.2954 7.2373 20.6104 7.11279 20.9941 7.11279C21.3779 7.11279 21.6929 7.23584 21.939 7.48193C22.1851 7.72803 22.3081 8.05469 22.3081 8.46191V8.77393C22.3081 9.15771 22.1851 9.47412 21.939 9.72314C21.6958 9.96924 21.3838 10.0923 21.0029 10.0923C20.6221 10.0923 20.3071 9.9707 20.0581 9.72754C19.8091 9.48145 19.6846 9.15479 19.6846 8.74756V8.43115ZM20.291 8.77393C20.291 9.00537 20.3555 9.1958 20.4844 9.34521C20.6133 9.4917 20.7861 9.56494 21.0029 9.56494C21.2139 9.56494 21.3823 9.49316 21.5083 9.34961C21.6343 9.20312 21.6973 9.00537 21.6973 8.75635V8.43115C21.6973 8.19971 21.6328 8.01074 21.5039 7.86426C21.3779 7.71777 21.208 7.64453 20.9941 7.64453C20.7861 7.64453 20.6162 7.71777 20.4844 7.86426C20.3555 8.00781 20.291 8.20264 20.291 8.44873V8.77393ZM18.0718 9.5166L17.6104 9.22656L20.7349 4.22559L21.1963 4.51562L18.0718 9.5166Z" fill="white"/>
</svg>
