<svg width="59" height="61" viewBox="0 0 59 61" fill="none" xmlns="http://www.w3.org/2000/svg">
<path fill-rule="evenodd" clip-rule="evenodd" d="M46.9086 41.8507C50.1007 29.9383 42.5424 17.6347 30.1256 14.308C16.1036 10.5472 -3.79816 20.3131 0.629198 32.84C2.09683 36.983 4.92203 37.9522 10.2514 38.0287L10.5846 38.0348C13.4007 38.0684 14.1926 38.2519 14.4311 38.6371C14.8194 39.2731 14.8255 40.2852 14.3883 43.0706C14.1804 44.3854 14.1131 44.844 14.0336 45.5625C13.5474 49.9379 14.2874 53.3502 17.1523 56.4383C26.1049 66.0789 43.3037 55.2979 46.9086 41.8507ZM6.39578 30.7975C4.16681 24.4989 18.4304 17.5001 28.5418 20.2091C37.7665 22.6827 43.2976 31.6873 41.0014 40.2638C38.4391 49.8279 26.3801 57.3862 21.6347 52.2739C20.1671 50.6962 19.8032 49.0084 20.112 46.2352C20.1762 45.642 20.2374 45.2323 20.43 44.0154C21.0996 39.744 21.0905 37.7932 19.6412 35.4359C17.825 32.4792 15.6663 31.9808 10.6611 31.9166L10.337 31.9105C7.38949 31.8707 6.6893 31.6292 6.39272 30.7975H6.39578Z" fill="#FFF739"/>
<path d="M15.6579 29.7506C14.6443 29.7506 13.6721 29.3479 12.9554 28.6312C12.2386 27.9145 11.8359 26.9423 11.8359 25.9287C11.8359 24.9151 12.2386 23.943 12.9554 23.2262C13.6721 22.5095 14.6443 22.1068 15.6579 22.1068C16.6715 22.1068 17.6437 22.5095 18.3604 23.2262C19.0772 23.943 19.4799 24.9151 19.4799 25.9287C19.4799 26.9423 19.0772 27.9145 18.3604 28.6312C17.6437 29.3479 16.6715 29.7506 15.6579 29.7506Z" fill="#09FFF0"/>
<path d="M27.1247 29.7526C26.111 29.7526 25.1389 29.3499 24.4222 28.6332C23.7054 27.9164 23.3027 26.9443 23.3027 25.9307C23.3027 24.917 23.7054 23.9449 24.4222 23.2282C25.1389 22.5114 26.111 22.1088 27.1247 22.1088C28.1383 22.1088 29.1105 22.5114 29.8272 23.2282C30.544 23.9449 30.9467 24.917 30.9467 25.9307C30.9467 26.9443 30.544 27.9164 29.8272 28.6332C29.1105 29.3499 28.1383 29.7526 27.1247 29.7526Z" fill="#00FF29"/>
<path d="M34.7673 38.9259C33.7536 38.9259 32.7815 38.5232 32.0647 37.8065C31.348 37.0897 30.9453 36.1175 30.9453 35.1039C30.9453 34.0902 31.348 33.1181 32.0647 32.4013C32.7815 31.6845 33.7536 31.2819 34.7673 31.2819C35.7809 31.2819 36.7531 31.6845 37.4698 32.4013C38.1866 33.1181 38.5892 34.0902 38.5892 35.1039C38.5892 36.1175 38.1866 37.0897 37.4698 37.8065C36.7531 38.5232 35.7809 38.9259 34.7673 38.9259Z" fill="#FF00C7"/>
<path d="M30.1813 49.6256C29.1677 49.6256 28.1956 49.2229 27.4788 48.5062C26.762 47.7894 26.3594 46.8173 26.3594 45.8036C26.3594 44.7899 26.762 43.8178 27.4788 43.101C28.1956 42.3842 29.1677 41.9816 30.1813 41.9816C31.195 41.9816 32.1671 42.3842 32.8839 43.101C33.6006 43.8178 34.0033 44.7899 34.0033 45.8036C34.0033 46.8173 33.6006 47.7894 32.8839 48.5062C32.1671 49.2229 31.195 49.6256 30.1813 49.6256Z" fill="#FF0404"/>
<path d="M41.2497 10.1981C41.6122 10.0039 42.0102 9.8848 42.4199 9.84797C42.8295 9.81115 43.2424 9.85735 43.6338 9.98381C44.0251 10.1103 44.387 10.3144 44.6976 10.584C45.0082 10.8535 45.2613 11.183 45.4416 11.5526L57.9563 37.2363C58.1652 37.698 58.1905 38.2219 58.027 38.7015C57.8635 39.1812 57.5235 39.5806 57.0761 39.8185C56.6287 40.0564 56.1074 40.115 55.6184 39.9824C55.1293 39.8498 54.7091 39.5359 54.4431 39.1045L40.0481 14.4298C39.8411 14.0749 39.708 13.6818 39.6567 13.2741C39.6054 12.8665 39.6369 12.4526 39.7494 12.0575C39.8619 11.6623 40.0531 11.2939 40.3114 10.9744C40.5697 10.6549 40.8899 10.3909 41.2528 10.1981H41.2497Z" fill="#533700"/>
<g filter="url(#filter0_i_13454_44873)">
<path fill-rule="evenodd" clip-rule="evenodd" d="M35.6459 9.83127C37.1349 12.6289 39.6391 13.4116 42.0607 12.1244C44.4792 10.8403 45.2344 8.3239 43.7454 5.52626C42.0454 2.32196 38.4008 -0.582696 35.9853 0.698411C33.5698 1.98258 33.9428 6.62697 35.6489 9.83127H35.6459ZM38.3457 8.39423C37.8043 7.30708 37.4724 6.12774 37.3673 4.91781C37.3218 4.41199 37.3403 3.90246 37.4223 3.40127L37.4774 3.42879C37.6303 3.50217 38.1042 3.72231 38.7096 4.2054C39.633 4.94227 40.5502 6.02769 41.0456 6.96024C41.7457 8.27498 41.547 8.93541 40.6236 9.42767C39.7063 9.91688 39.0459 9.70897 38.3457 8.39728V8.39423Z" fill="#FFE600"/>
</g>
<defs>
<filter id="filter0_i_13454_44873" x="34.2715" y="0.388672" width="10.2373" height="12.3378" filterUnits="userSpaceOnUse" color-interpolation-filters="sRGB">
<feFlood flood-opacity="0" result="BackgroundImageFix"/>
<feBlend mode="normal" in="SourceGraphic" in2="BackgroundImageFix" result="shape"/>
<feColorMatrix in="SourceAlpha" type="matrix" values="0 0 0 0 0 0 0 0 0 0 0 0 0 0 0 0 0 0 127 0" result="hardAlpha"/>
<feOffset/>
<feGaussianBlur stdDeviation="2"/>
<feComposite in2="hardAlpha" operator="arithmetic" k2="-1" k3="1"/>
<feColorMatrix type="matrix" values="0 0 0 0 0 0 0 0 0 0 0 0 0 0 0 0 0 0 0.25 0"/>
<feBlend mode="normal" in2="shape" result="effect1_innerShadow_13454_44873"/>
</filter>
</defs>
</svg>
