<svg width="54" height="53" viewBox="0 0 54 53" fill="none" xmlns="http://www.w3.org/2000/svg">
<path d="M30.8739 13.2213V8.04772C34.4739 8.89082 37.5065 10.5195 39.9717 12.9338C42.437 15.3482 44.1 18.4331 44.9609 22.1887H39.6783C38.3478 17.6667 35.413 14.6775 30.8739 13.2213ZM23.0087 13.2213V8.04772C15.1043 9.58062 10.2913 14.2943 8.56957 22.1887H13.8522C15.0261 17.82 18.0783 14.8308 23.0087 13.2213ZM13.8522 29.3167H8.56957C9.35217 33.6855 10.8978 36.9812 13.2065 39.2039C15.5152 41.4266 18.7826 42.9595 23.0087 43.8026V38.6291C20.9739 38.0159 19.0957 36.8279 17.3739 35.0651C15.6522 33.3022 14.4783 31.3861 13.8522 29.3167ZM50.5957 25.9826C50.5957 32.4975 48.2674 38.0351 43.6109 42.5954C38.9543 47.1558 33.3391 49.436 26.7652 49.436C20.113 49.436 14.4587 47.1558 9.80217 42.5954C5.14565 38.0351 2.81739 32.4975 2.81739 25.9826C2.81739 19.4678 5.14565 13.9111 9.80217 9.31236C14.4587 4.71367 20.113 2.41432 26.7652 2.41432C33.3391 2.41432 38.9543 4.71367 43.6109 9.31236C48.2674 13.9111 50.5957 19.4678 50.5957 25.9826ZM48.2478 25.9826C48.2478 20.1576 46.1544 15.1757 41.9674 11.0369C37.7804 6.89805 32.713 4.82863 26.7652 4.82863C20.8174 4.82863 15.7304 6.87889 11.5043 10.9794C7.27826 15.0799 5.16522 20.081 5.16522 25.9826C5.16522 31.8077 7.27826 36.7896 11.5043 40.9284C15.7304 45.0672 20.8174 47.1367 26.7652 47.1367C32.713 47.1367 37.7804 45.0672 41.9674 40.9284C46.1544 36.7896 48.2478 31.8077 48.2478 25.9826ZM26.7652 36.6746C23.713 36.6746 21.1304 35.6208 19.0174 33.513C16.9043 31.4053 15.8478 28.8952 15.8478 25.9826C15.8478 22.9935 16.9043 20.4642 19.0174 18.3948C21.1304 16.3254 23.713 15.2523 26.7652 15.1757C29.7391 15.2523 32.2826 16.3254 34.3957 18.3948C36.5087 20.4642 37.6043 22.9935 37.6826 25.9826C37.6043 28.8952 36.5087 31.4053 34.3957 33.513C32.2826 35.6208 29.7391 36.6746 26.7652 36.6746ZM35.2174 25.9826C35.2174 23.6833 34.3957 21.7097 32.7522 20.0618C31.1087 18.414 29.113 17.59 26.7652 17.59C24.4174 17.59 22.4022 18.414 20.7196 20.0618C19.037 21.7097 18.1957 23.6833 18.1957 25.9826C18.1957 28.282 19.037 30.2364 20.7196 31.846C22.4022 33.4555 24.4174 34.2603 26.7652 34.2603C29.113 34.2603 31.1087 33.4555 32.7522 31.846C34.3957 30.2364 35.2174 28.282 35.2174 25.9826ZM30.8739 38.6291V43.8026C38.7 42.0398 43.3957 37.2111 44.9609 29.3167H39.6783C38.8957 31.4628 37.7413 33.398 36.2152 35.1226C34.6891 36.8471 32.9087 38.0159 30.8739 38.6291ZM51.4174 39.6638C50.6348 39.6638 49.9891 39.9129 49.4804 40.4111C48.9717 40.9093 48.7174 41.5416 48.7174 42.308C48.7174 42.9978 48.9717 43.5918 49.4804 44.09C49.9891 44.5882 50.6348 44.8373 51.4174 44.8373C52.1217 44.8373 52.7283 44.5882 53.237 44.09C53.7457 43.5918 54 42.9978 54 42.308C54 41.5416 53.7457 40.9093 53.237 40.4111C52.7283 39.9129 52.1217 39.6638 51.4174 39.6638ZM44.9609 46.3319C44.0217 46.3319 43.2196 46.6576 42.5544 47.3091C41.8891 47.9606 41.5565 48.7462 41.5565 49.6659C41.5565 50.5857 41.8891 51.3713 42.5544 52.0228C43.2196 52.6743 44.0217 53 44.9609 53C45.9 53 46.7022 52.6743 47.3674 52.0228C48.0326 51.3713 48.3652 50.5857 48.3652 49.6659C48.3652 48.7462 48.0326 47.9606 47.3674 47.3091C46.7022 46.6576 45.9 46.3319 44.9609 46.3319ZM50.5957 31.1562C49.5 31.1562 48.9522 31.6927 48.9522 32.7657C48.9522 33.7621 49.5 34.2603 50.5957 34.2603C51.613 34.2603 52.1217 33.7621 52.1217 32.7657C52.1217 31.6927 51.613 31.1562 50.5957 31.1562ZM3.63913 48.8612C2.54348 48.8612 1.99565 49.3977 1.99565 50.4707C1.99565 51.6204 2.54348 52.1952 3.63913 52.1952C4.1087 52.1952 4.51957 52.0228 4.87174 51.6779C5.22391 51.333 5.4 50.9306 5.4 50.4707C5.4 49.3977 4.81304 48.8612 3.63913 48.8612ZM3.16957 40.0087C2.07391 40.0087 1.52609 40.5452 1.52609 41.6182C1.52609 42.6913 2.07391 43.2278 3.16957 43.2278C3.56087 43.2278 3.93261 43.0745 4.28478 42.7679C4.63696 42.4613 4.81304 42.0781 4.81304 41.6182C4.81304 41.1584 4.63696 40.7751 4.28478 40.4685C3.93261 40.162 3.56087 40.0087 3.16957 40.0087ZM8.45217 44.0325C7.82609 44.0325 7.29783 44.2625 6.86739 44.7223C6.43696 45.1822 6.22174 45.6804 6.22174 46.2169C6.22174 46.7534 6.43696 47.2516 6.86739 47.7115C7.29783 48.1714 7.82609 48.4013 8.45217 48.4013C9.07826 48.4013 9.60652 48.1714 10.037 47.7115C10.4674 47.2516 10.6826 46.7534 10.6826 46.2169C10.6826 45.6804 10.4674 45.1822 10.037 44.7223C9.60652 44.2625 9.07826 44.0325 8.45217 44.0325ZM51.4174 11.6117C50.6348 11.6117 50.2435 11.9949 50.2435 12.7614C50.2435 13.4512 50.6348 13.7961 51.4174 13.7961C52.2 13.7961 52.5913 13.4512 52.5913 12.7614C52.5913 11.9949 52.2 11.6117 51.4174 11.6117ZM1.87826 6.89805C0.626087 6.89805 0 7.54953 0 8.8525C0 10.0788 0.626087 10.692 1.87826 10.692C3.13043 10.692 3.75652 10.0788 3.75652 8.8525C3.75652 7.54953 3.13043 6.89805 1.87826 6.89805ZM6.22174 0C5.59565 0 5.04783 0.229935 4.57826 0.689805C4.1087 1.14967 3.87391 1.72451 3.87391 2.41432C3.87391 3.02748 4.1087 3.56399 4.57826 4.02386C5.04783 4.48373 5.59565 4.71367 6.22174 4.71367C6.92609 4.71367 7.51304 4.48373 7.98261 4.02386C8.45217 3.56399 8.68696 3.02748 8.68696 2.41432C8.68696 1.72451 8.45217 1.14967 7.98261 0.689805C7.51304 0.229935 6.92609 0 6.22174 0ZM2.46522 14.6009C1.68261 14.6009 1.2913 15.0224 1.2913 15.8655C1.2913 16.632 1.68261 17.0152 2.46522 17.0152C3.32609 17.0152 3.75652 16.632 3.75652 15.8655C3.75652 15.0224 3.32609 14.6009 2.46522 14.6009Z" fill="#9BF7D6"/>
</svg>
