<svg width="45" height="60" viewBox="0 0 45 60" fill="none" xmlns="http://www.w3.org/2000/svg">
<path d="M0 15.4688C0 15.4688 8.4375 0 22.5 0C36.5625 0 45 15.4688 45 15.4688C45 15.4688 36.5625 30.9376 22.5 30.9376C8.4375 30.9376 0 15.4688 0 15.4688ZM22.5 25.3126C25.1107 25.3126 13.6227 24.2048 15.4688 22.3588C17.3148 20.5127 18.3519 18.0089 18.3519 15.3981C18.3519 12.7874 -6.96058 19.6169 15.4688 8.43753C13.6227 6.59146 25.1107 5.62502 22.5 5.62502C19.8893 5.62502 24.9587 5.87617 23.1127 7.72224C21.2666 9.56831 20.2295 12.0721 20.2295 14.6828C20.2295 17.2936 21.2666 19.7974 23.1127 21.6435C24.9587 23.4895 19.8893 25.3126 22.5 25.3126Z" fill="#CEE2E6"/>
<path d="M29.5332 15.4719C29.5332 17.3367 28.7924 19.1252 27.4738 20.4438C26.1552 21.7624 24.3668 22.5032 22.502 22.5032C20.6371 22.5032 18.8487 21.7624 17.5301 20.4438C16.2115 19.1252 15.4707 17.3367 15.4707 15.4719C15.4707 13.6071 16.2115 11.8187 17.5301 10.5001C18.8487 9.18146 20.6371 8.44067 22.502 8.44067C24.3668 8.44067 26.1552 9.18146 27.4738 10.5001C28.7924 11.8187 29.5332 13.6071 29.5332 15.4719Z" fill="#333C67"/>
<circle cx="22.5" cy="15.4691" r="2.8125" fill="#CEE2E6"/>
<rect x="7.93945" y="22.0842" width="29.1176" height="37.0588" rx="10" fill="#56A4F5"/>
<path d="M33.5801 39.1993C33.5801 37.9771 32.3376 36.9831 30.8098 36.9831H29.4247V33.6588C29.4247 30.6038 26.3179 28.1183 22.499 28.1183C18.6802 28.1183 15.5734 30.6038 15.5734 33.6588V36.9831H14.1882C12.6604 36.9831 11.418 37.9771 11.418 39.1993V48.0642C11.418 49.2864 12.6604 50.2804 14.1882 50.2804H30.8098C32.3376 50.2804 33.5801 49.2864 33.5801 48.0642V39.1993ZM18.3436 33.6588C18.3436 31.826 20.208 30.3345 22.499 30.3345C24.79 30.3345 26.6544 31.826 26.6544 33.6588V36.9831H18.3436V33.6588Z" fill="#333C67"/>
</svg>
