<svg width="55" height="68" viewBox="0 0 55 68" fill="none" xmlns="http://www.w3.org/2000/svg">
<path d="M53.892 8.7134L28.6299 0.1552C28.3251 0.0517334 27.9162 0 27.5073 0C27.0984 0 26.6895 0.0517334 26.3847 0.1552L1.12259 8.7134C0.50554 8.92033 0 9.62982 0 10.2802V45.932C0 46.5823 0.423761 47.4396 0.936735 47.8461L26.5631 67.697C26.8233 67.8965 27.1579 68 27.4998 68C27.8418 68 28.1838 67.8965 28.4366 67.697L54.0629 47.8461C54.5759 47.447 54.9997 46.5897 54.9997 45.932V10.2802C55.0145 9.62982 54.509 8.92772 53.892 8.7134ZM41.0751 21.3364L25.2695 42.9684C25.1584 43.1196 25.013 43.2425 24.845 43.3273C24.6771 43.4121 24.4914 43.4563 24.303 43.4563C24.1147 43.4563 23.929 43.4121 23.7611 43.3273C23.5931 43.2425 23.4477 43.1196 23.3366 42.9684L13.9395 30.1089C13.657 29.7172 13.9395 29.1703 14.4227 29.1703H18.5265C18.9057 29.1703 19.27 29.3551 19.493 29.6581L24.303 36.2356L35.5216 20.8782C35.7446 20.5752 36.1014 20.3904 36.488 20.3904H40.5918C41.0751 20.3978 41.3576 20.9447 41.0751 21.3364Z" fill="#FD5286"/>
</svg>
