<svg width="20" height="20" viewBox="0 0 20 20" fill="none" xmlns="http://www.w3.org/2000/svg">
<path d="M4.99772 12.1376L3.63104 18.0556C3.58872 18.2348 3.60143 18.4226 3.6675 18.5945C3.73357 18.7663 3.84993 18.9143 4.00139 19.019C4.15285 19.1237 4.33237 19.1803 4.5165 19.1814C4.70062 19.1825 4.8808 19.128 5.03349 19.0251L10.0278 15.6956L15.0222 19.0251C15.1784 19.1289 15.3627 19.1823 15.5502 19.1781C15.7377 19.174 15.9194 19.1126 16.0709 19.0021C16.2225 18.8916 16.3365 18.7374 16.3978 18.5602C16.4591 18.3829 16.4646 18.1911 16.4136 18.0107L14.736 12.1404L18.8966 8.39622C19.0298 8.27623 19.125 8.11982 19.1703 7.94632C19.2156 7.77283 19.209 7.58986 19.1515 7.42004C19.0939 7.25023 18.9878 7.10101 18.8463 6.99085C18.7048 6.88069 18.5342 6.81442 18.3554 6.80023L13.1263 6.3838L10.8634 1.37479C10.7913 1.2135 10.674 1.07654 10.5257 0.980432C10.3774 0.884329 10.2045 0.833191 10.0278 0.833191C9.85114 0.833191 9.67822 0.884329 9.52995 0.980432C9.38168 1.07654 9.26439 1.2135 9.19223 1.37479L6.92942 6.3838L1.70027 6.79931C1.52457 6.81323 1.35661 6.87747 1.21647 6.98434C1.07634 7.09122 0.969957 7.23621 0.910062 7.40196C0.850167 7.56771 0.839292 7.74721 0.87874 7.91898C0.918188 8.09075 1.00629 8.24752 1.1325 8.37053L4.99772 12.1376ZM7.61459 8.16966C7.77831 8.15676 7.93555 8.10005 8.06982 8.00549C8.20408 7.91092 8.31044 7.78197 8.37773 7.63216L10.0278 3.98065L11.6779 7.63216C11.7452 7.78197 11.8516 7.91092 11.9859 8.00549C12.1201 8.10005 12.2774 8.15676 12.4411 8.16966L16.0843 8.45859L13.0841 11.1589C12.8236 11.3937 12.7199 11.7551 12.8153 12.0927L13.9646 16.1147L10.5378 13.8299C10.3874 13.729 10.2104 13.6751 10.0292 13.6751C9.84806 13.6751 9.67101 13.729 9.5206 13.8299L5.93972 16.2175L6.90282 12.0477C6.93813 11.8944 6.93339 11.7345 6.88905 11.5835C6.84472 11.4325 6.76228 11.2954 6.64966 11.1855L3.8631 8.46868L7.61459 8.16966Z" fill="#F3CD03"/>
</svg>
