<svg width="20" height="20" viewBox="0 0 20 20" fill="none" xmlns="http://www.w3.org/2000/svg">
<path d="M19.0969 7.41927C19.0392 7.24946 18.9331 7.10025 18.7916 6.99006C18.6501 6.87987 18.4795 6.81353 18.3007 6.79922L13.0716 6.38371L10.8087 1.3747C10.7367 1.21337 10.6195 1.07634 10.4712 0.980156C10.323 0.883971 10.1501 0.832739 9.97344 0.832642C9.79675 0.832545 9.62381 0.883587 9.47548 0.979609C9.32715 1.07563 9.20979 1.21253 9.13755 1.37378L6.87473 6.38371L1.64558 6.79922C1.46989 6.81314 1.30193 6.87738 1.16179 6.98425C1.02165 7.09113 0.91527 7.23612 0.855374 7.40187C0.795479 7.56762 0.784605 7.74712 0.824053 7.91889C0.8635 8.09066 0.951599 8.24743 1.07781 8.37044L4.94212 12.1375L3.57544 18.0555C3.53394 18.2347 3.54724 18.4221 3.61361 18.5936C3.67999 18.7651 3.79637 18.9127 3.94765 19.0172C4.09894 19.1217 4.27815 19.1783 4.46202 19.1797C4.6459 19.1811 4.82594 19.1272 4.97881 19.025L9.97315 15.6955L14.9675 19.025C15.1237 19.1288 15.308 19.1822 15.4955 19.1781C15.683 19.1739 15.8647 19.1125 16.0162 19.002C16.1678 18.8916 16.2819 18.7373 16.3431 18.5601C16.4044 18.3828 16.4099 18.1911 16.3589 18.0106L14.6813 12.1403L18.8419 8.39612C19.1143 8.15031 19.2143 7.7669 19.0969 7.41927Z" fill="#F3CD03"/>
</svg>
